<?xml version="1.0" standalone="no"?>
<svg xmlns="http://www.w3.org/2000/svg" viewBox="0 0 397.7 73.9" style="fill:#fff"><path d="M231.4 133.7h-7.5v6.1h8.7v1.8h-10.9v-17.2h10.8v1.9h-8.6v5.5h7.5zM237.3 128.8v1.6a4.6 4.6 0 013.8-1.8c2.7 0 4.1 1.5 4.1 4.6v8.4H243v-8.4a3.1 3.1 0 00-.6-2.1 2.7 2.7 0 00-1.9-.7 3.1 3.1 0 00-1.9.6 4.7 4.7 0 00-1.3 1.5v9.1h-2.1v-12.8zM262.4 138.2a1.4 1.4 0 00-.7-1.3 4.6 4.6 0 00-2.3-.9 10.1 10.1 0 01-2.6-.8 4.9 4.9 0 01-1.5-1.2 3.1 3.1 0 01-.4-1.7 3.2 3.2 0 011.3-2.6 5.3 5.3 0 013.4-1.1 5.4 5.4 0 013.5 1.1 3.7 3.7 0 011.4 2.9h-2.2a2.3 2.3 0 00-.8-1.6 2.9 2.9 0 00-1.9-.6 3.6 3.6 0 00-1.9.5 1.8 1.8 0 00-.6 1.4 1.4 1.4 0 00.6 1.2 9.5 9.5 0 002.2.7l2.7.9a3.8 3.8 0 011.5 1.2 3.5 3.5 0 01.5 1.8 3.3 3.3 0 01-1.4 2.7 5.6 5.6 0 01-3.5 1.1 6.1 6.1 0 01-2.8-.6 3.8 3.8 0 01-1.8-1.5 4.4 4.4 0 01-.7-2.1h2.2a2.6 2.6 0 00.9 1.7 3.1 3.1 0 002.2.7 3.9 3.9 0 002-.5 1.6 1.6 0 00.7-1.4zM270.6 125.7v3.1h2.4v1.7h-2.4v8a1.6 1.6 0 00.3 1.1 1.2 1.2 0 001.1.4h1v1.7a4.5 4.5 0 01-1.6.3 2.7 2.7 0 01-2.2-.9 3.9 3.9 0 01-.8-2.5v-8h-2.3v-1.7h2.3v-3.1zM279.9 138.4l3-9.6h2.3l-5.1 14.8c-.8 2.1-2.1 3.2-3.8 3.2h-.4l-.9-.2v-1.8h.6a3 3 0 001.8-.5 3.4 3.4 0 001-1.6l.5-1.3-4.6-12.7h2.4zM293.5 130.8h-1a2.9 2.9 0 00-3 1.8v9.1h-2.2v-12.9h2.2v1.5a3.4 3.4 0 013.1-1.7c.4 0 .7 0 .9.2zM299.3 135.7l-1.4 1.4v4.5h-2.2v-18.1h2.2v10.9l1.2-1.4 4-4.2h2.6l-4.9 5.4 5.5 7.4h-2.5zM313.2 141.9a5.7 5.7 0 01-4.2-1.7 6.5 6.5 0 01-1.6-4.6v-.4a7.4 7.4 0 01.7-3.4 6.8 6.8 0 012-2.4 6 6 0 012.9-.8 5 5 0 013.9 1.6 7.3 7.3 0 011.3 4.7v1h-8.6a4.4 4.4 0 001.1 3 3.4 3.4 0 002.7 1.2 3.8 3.8 0 001.9-.5 4.1 4.1 0 001.4-1.2l1.4 1a5.6 5.6 0 01-4.9 2.5zm-.2-11.5a2.9 2.9 0 00-2.3 1 4.8 4.8 0 00-1.1 2.7h6.4v-.2a4 4 0 00-.8-2.6 2.9 2.9 0 00-2.2-.9zM328.2 141.6v-11.1h-2v-1.7h2v-1.3a4.6 4.6 0 011.1-3.2 4.3 4.3 0 013.1-1.1l1.5.2v1.8h-1.2a2 2 0 00-1.6.6 2.4 2.4 0 00-.6 1.8v1.3h2.7v1.7h-2.7v11.1zM335.1 135.1a7.7 7.7 0 01.8-3.4 4.5 4.5 0 012-2.3 6.1 6.1 0 013-.8 5.5 5.5 0 014.3 1.8 7.3 7.3 0 011.6 4.8v.2a8.8 8.8 0 01-.7 3.3 5.2 5.2 0 01-2.1 2.3 5.4 5.4 0 01-3.1.9 5.4 5.4 0 01-4.2-1.8 7 7 0 01-1.6-4.8zm2.2.3a5.3 5.3 0 001 3.4 3.3 3.3 0 002.6 1.3 3.4 3.4 0 002.7-1.3 6.5 6.5 0 001-3.7 6 6 0 00-1-3.4 3.2 3.2 0 00-2.7-1.3 3 3 0 00-2.6 1.3 5.6 5.6 0 00-1 3.7zM355.9 130.8h-1.1a2.9 2.9 0 00-2.9 1.8v9.1h-2.2v-12.9h2.1v1.5a3.7 3.7 0 013.1-1.7 1.6 1.6 0 011 .2zM375.1 135.4a7.7 7.7 0 01-1.4 4.7 4.3 4.3 0 01-3.6 1.8 4.5 4.5 0 01-3.8-1.8v1.5h-2v-18.1h2.2v6.7a4.4 4.4 0 013.7-1.6 4.3 4.3 0 013.6 1.8 7.4 7.4 0 011.4 4.8zm-2.2-.3a5.5 5.5 0 00-.9-3.4 3 3 0 00-2.5-1.3 3.2 3.2 0 00-3.1 2.1v5.5a3.4 3.4 0 003.1 2 2.9 2.9 0 002.5-1.2 6.1 6.1 0 00.9-3.7zM377.4 135.1a7.7 7.7 0 01.7-3.4 5.8 5.8 0 012.1-2.3 6.1 6.1 0 013-.8 6 6 0 012.4.5l.9-1.8h1.5l-1.2 2.5c1.5 1.2 2.3 3 2.3 5.6a7.3 7.3 0 01-.8 3.3 5.9 5.9 0 01-2 2.4 6.2 6.2 0 01-3.1.8 7.8 7.8 0 01-2.2-.4l-.9 1.7h-1.5l1.2-2.4q-2.4-1.8-2.4-5.7zm2.2.3a5.7 5.7 0 001.1 3.6l4.1-8.2a2.9 2.9 0 00-1.6-.4 3 3 0 00-2.6 1.3 5.6 5.6 0 00-1 3.7zm7.3-.3a5.6 5.6 0 00-1.1-3.5l-4 8.2a3.2 3.2 0 001.4.3 3.5 3.5 0 002.7-1.3 6.1 6.1 0 001-3.5zM398.1 130.8H397a2.9 2.9 0 00-2.9 1.8v9.1h-2.2v-12.9h2.1v1.5a3.7 3.7 0 013.1-1.7 1.6 1.6 0 011 .2zM402.3 128.8v1.6a4.6 4.6 0 013.8-1.8c2.7 0 4.1 1.5 4.1 4.6v8.4H408v-8.4a3.1 3.1 0 00-.6-2.1 2.7 2.7 0 00-1.9-.7 3.1 3.1 0 00-1.9.6 4.7 4.7 0 00-1.3 1.5v9.1h-2.2v-12.8zM419.1 141.9a5.7 5.7 0 01-4.2-1.7 6.5 6.5 0 01-1.7-4.6v-.4a7.4 7.4 0 01.8-3.4 5.2 5.2 0 012-2.4 5.7 5.7 0 012.8-.8 4.7 4.7 0 013.9 1.6 7.3 7.3 0 011.4 4.7v1h-8.7a5 5 0 001.1 3 3.4 3.4 0 002.7 1.2 4.2 4.2 0 002-.5 5.3 5.3 0 001.4-1.2l1.3 1a5.4 5.4 0 01-4.8 2.5zm-.3-11.5a2.7 2.7 0 00-2.2 1 4.2 4.2 0 00-1.1 2.7h6.4v-.2a4.7 4.7 0 00-.9-2.6 2.8 2.8 0 00-2.2-.9zM428.9 128.8v1.6a4.8 4.8 0 013.9-1.8c2.7 0 4 1.5 4.1 4.6v8.4h-2.2v-8.4a2.7 2.7 0 00-.7-2.1 2.6 2.6 0 00-1.9-.7 3.3 3.3 0 00-1.9.6 4.4 4.4 0 00-1.2 1.5v9.1h-2.2v-12.8zM445.7 141.9a5.8 5.8 0 01-4.3-1.7 6.5 6.5 0 01-1.6-4.6v-.4a7.4 7.4 0 01.7-3.4 6.8 6.8 0 012-2.4 6 6 0 012.9-.8 5 5 0 013.9 1.6 7.3 7.3 0 011.3 4.7v1H442a4.4 4.4 0 001.1 3 3.4 3.4 0 002.7 1.2 3.8 3.8 0 001.9-.5 4.1 4.1 0 001.4-1.2l1.4 1a5.5 5.5 0 01-4.8 2.5zm-.3-11.5a2.7 2.7 0 00-2.2 1 4.8 4.8 0 00-1.2 2.7h6.5v-.2a4.7 4.7 0 00-.9-2.6 2.9 2.9 0 00-2.2-.9zM210.9 118.7a.6.6 0 01-.6-.6V81.9c0-.3.2-.5.6-.5a.5.5 0 01.5.5v36.2a.6.6 0 01-.5.6zM349.6 118.6a.6.6 0 01-.6-.5V81.9a.6.6 0 011.2 0v36.2a.6.6 0 01-.6.5z" transform="translate(-90.6 -72.9)" style="fill:#fff"></path><path d="M219.3 103.8v-4c0-5.7 4.7-8.5 9.4-8.5s9.1 2.5 9.1 7.3v.8h-6v-.5a2.7 2.7 0 00-3-2.9 2.9 2.9 0 00-3.2 3.1v4.9a2.9 2.9 0 003.2 3.2 2.8 2.8 0 003-2.9v-.5h6v.9c0 4.8-4.4 7.1-9 7.1s-9.5-2.4-9.5-8zM239.9 106c0-4.6 4.9-6.3 8.8-6.3h3.5v-1.6c0-1.6-1.1-2.4-3.1-2.4s-2.9.9-2.9 1.9v.6h-5.5v-.7c0-4.3 4.2-6.2 8.7-6.2s8.9 1.8 8.9 6.8v8.9a21.1 21.1 0 00.4 4.4h-5.9a12.5 12.5 0 01-.2-2.2h-.2a6.9 6.9 0 01-6 2.6c-3.7 0-6.5-2.1-6.5-5.8zm12.3-1.8v-1.1h-3c-1.8 0-3.1.5-3.1 2.1s.8 2.2 2.7 2.2 3.4-1.3 3.4-3.2zM262.5 91.7h6.1v2.5h.1a6.9 6.9 0 015.9-2.9c3.5 0 6.5 2.1 6.5 6.5v13.6h-6.2V99.9c0-2-.7-3.7-3-3.7s-3.2 1.3-3.2 4.1v11.1h-6.2zM284.4 103.8v-4c0-5.7 4.8-8.5 9.5-8.5s9.1 2.5 9.1 7.3v.8h-6v-.5c0-2.1-1.5-2.9-3.1-2.9a2.8 2.8 0 00-3.1 3.1v4.9a2.9 2.9 0 003.2 3.2 2.8 2.8 0 003-2.9v-.5h6v.9c0 4.8-4.4 7.1-9 7.1s-9.6-2.4-9.6-8zM305.3 103.7v-3.6c0-6 4.8-8.8 9.6-8.8s8.7 2.6 8.7 8v3.8h-12v.8c0 2.2 2.2 3.2 4.2 3.2a9.2 9.2 0 005.1-1.8l2.3 3.5a11.5 11.5 0 01-8.2 3c-4.9 0-9.7-2.3-9.7-8.1zm12.5-4.2v-.7a2.8 2.8 0 00-3-3 3 3 0 00-3.2 3.1v.6zM327.2 91.7h6v3.2h.1a7.1 7.1 0 015.9-3.5h2v5.4l-2.6-.3c-2.6 0-5.3 1.1-5.3 4.5v10.3h-6.1z" transform="translate(-90.6 -72.9)" style="fill:#fff"></path><path d="M369.8 103.9v-4.2c0-5.7 4.8-8.4 9.3-8.4s9.5 2.6 9.5 8.2v4.1c0 5.7-4.9 8.2-9.3 8.2s-9.5-2.2-9.5-7.9zm12.6.1v-4.9a3 3 0 00-3.2-3.1 2.9 2.9 0 00-3.1 3.2v4.9c0 1.9 1.2 3 3.2 3a2.9 2.9 0 003.1-3.1zM392.2 91.7h6.1v2.5h.1a6.9 6.9 0 015.9-2.9c3.5 0 6.5 2.1 6.5 6.5v13.6h-6.2V99.9c0-2-.7-3.7-3-3.7s-3.2 1.3-3.2 4.1v11.1h-6.2zM414.2 104.5v-5.9c0-4.6 3.4-7.3 7.7-7.3a6.7 6.7 0 015 2.2v-8.8h6.2v26.7h-6V109h-.1a7.1 7.1 0 01-5.5 2.8c-4.4 0-7.3-2.7-7.3-7.3zm12.7-.8v-4.8a3.3 3.3 0 00-6.5.3v4.6a3.3 3.3 0 006.5-.1zM436.7 103.7v-3.6c0-6 4.7-8.8 9.6-8.8s8.7 2.6 8.7 8v3.8h-12v.8c0 2.2 2.1 3.2 4.1 3.2a8.9 8.9 0 005.1-1.8l2.4 3.5a11.6 11.6 0 01-8.3 3c-4.9 0-9.6-2.3-9.6-8.1zm12.4-4.2v-.7a2.8 2.8 0 00-3-3 2.9 2.9 0 00-3.1 3.1v.6zM458.6 91.7h6.1v2.5h.1a6.9 6.9 0 015.9-2.9c3.5 0 6.5 2.1 6.5 6.5v13.6H471V99.9c0-2-.7-3.7-3-3.7s-3.2 1.3-3.2 4.1v11.1h-6.2zM365.6 88.6h3.5v-4.2a27.4 27.4 0 00-4.9-.3c-3.4 0-6.2 1.7-6.2 5.8v21.5h6.1v-15h3.5v-4.5h-3.5v-2c0-.9.7-1.3 1.5-1.3z" transform="translate(-90.6 -72.9)" style="fill:#fff"></path><path d="M113.1 91.1a6.7 6.7 0 00-5.4 2.7h-.1v-9.3h-6.2v26.7h6.1v-1.8h.1a6.2 6.2 0 004.8 2.3c4.3 0 7.9-2.8 7.9-7.3v-6c0-4.6-2.8-7.3-7.2-7.3zm1 12.8a3 3 0 01-3.1 3.2 3.2 3.2 0 01-3.4-3.1v-4.5c0-2.7 1.8-3.6 3.3-3.6a3 3 0 013.2 3.1zM151.6 94.8v-3.3h-6.1v19.7h6.2v-10.3c0-3.4 2.7-4.4 5.2-4.4a14.2 14.2 0 012.7.2v-5.3a6.8 6.8 0 00-2-.2 7.5 7.5 0 00-6 3.6zM174.4 91.1a7 7 0 00-6 2.9h-.1v-2.5h-6v19.7h6.2v-11.1c0-2.7 1.3-4.1 3.1-4.1s3.1 1.7 3.1 3.7v11.5h6.1V97.6c0-4.4-2.9-6.5-6.4-6.5zM202.5 102.9v-3.8c0-5.3-4.3-8-8.7-8s-9.6 2.9-9.6 8.8v3.7c0 5.7 4.7 8.1 9.6 8.1a11.2 11.2 0 008.3-3.1l-2.4-3.5a8.9 8.9 0 01-5.1 1.8c-2 0-4.1-1-4.1-3.2v-.8zm-12-4.1a2.9 2.9 0 013.1-3.1 2.7 2.7 0 013 3v.6h-6.1zM123.9 112l1.7-2.5a7.2 7.2 0 01-2.4-5.6v-4.3c0-5.7 4.8-8.4 9.4-8.4a12.2 12.2 0 015 1.1l1.5-2.2 2.3 1.2-1.6 2.4a7.9 7.9 0 012.3 5.8v4.1c0 5.7-5 8.2-9.4 8.2a13.1 13.1 0 01-4.8-.8l-1.5 2.3zm10.7-15.4a3.4 3.4 0 00-2-.6 3 3 0 00-3.1 3.2v3.6a6.6 6.6 0 00.1 1.1zm1.2 7.4v-4.6l-4.9 7.3a3.4 3.4 0 001.8.4 2.8 2.8 0 003.1-3.1z" transform="translate(-90.6 -72.9)" style="fill:#fff"></path><path d="M479.3 72.9H99.6a9.2 9.2 0 00-9 9.5v35.3a9.3 9.3 0 009 9.5h109V126h-109a8.1 8.1 0 01-7.9-8.3V82.4a8.2 8.2 0 017.9-8.4h379.7c4.3 0 7.8 3.8 7.8 8.4v35.3a8.1 8.1 0 01-7.8 8.3h-15.9v1.2h15.9c4.9 0 9-4.3 9-9.5V82.4a9.3 9.3 0 00-9-9.5z" transform="translate(-90.6 -72.9)" style="fill:#fff"></path></svg>
